<svg viewBox="0 0 40 34" fill="none" xmlns="http://www.w3.org/2000/svg"><path d="M11.895 5.004h1.316a12.023 12.023 0 0 1 6.664 2.592c-2.28 1.808-3.893 4.497-4.345 7.386-.772 4.252 1.036 8.838 4.435 11.484-1.855 1.49-4.259 2.34-6.63 2.489-2.801.207-5.627-.639-7.889-2.302C3.46 25.159 1.93 23.1 1.18 20.716c-1.358-4.12-.328-8.883 2.71-11.993 2.073-2.217 4.99-3.537 8.005-3.72Z" fill="#EA2C2C"/><path d="M27.928 28.996H26.61c-2.428-.167-4.784-1.047-6.694-2.57l.03-.022c2.28-1.808 3.893-4.497 4.345-7.386.772-4.252-1.016-8.776-4.416-11.423 1.855-1.489 4.24-2.4 6.611-2.55 2.801-.207 5.627.639 7.89 2.302 1.986 1.494 3.515 3.552 4.265 5.937 1.358 4.12.328 8.882-2.709 11.993-2.073 2.217-4.991 3.537-8.005 3.72Z" fill="#F9AD10"/><path d="M19.876 7.596c4.122 3.018 5.656 8.828 3.856 13.58-.743 2.122-2.116 3.813-3.767 5.29l-.072-.055c-3.4-2.646-5.135-7.176-4.363-11.43.452-2.888 2.066-5.577 4.346-7.385Z" fill="#FF5F00"/></svg>